<?xml version="1.0" encoding="UTF-8" standalone="no"?>
<svg xmlns="http://www.w3.org/2000/svg" width="664.40692" height="664.40723">
  <path fill="#fff" fill-rule="evenodd" stroke="#1f1917" stroke-miterlimit="10" stroke-width="4" d="M2 2h660.4069v660.407206H2V2z"/>
  <path fill="#291770" fill-rule="evenodd" d="M18.4966 18.497908h627.4133v627.412928H18.4966V18.497908z"/>
  <path fill="#fff" d="M169.4479 90.731407h206.387c18.9988 0 36.8592 3.61572 53.5828 10.84386 16.7288 7.22814 31.0807 17.13998 43.0529 29.74041 11.9801 12.600559 21.4788 27.263339 28.5 43.995209 7.0213 16.72685 10.526 34.59394 10.526 53.59294 0 19.00403-3.5047 36.87112-10.526 53.59796-7.0212 16.73188-16.6243 31.39466-28.8081 43.99522-12.1797 12.59553-26.5316 22.51226-43.0528 29.7404-16.5226 7.22814-34.276 10.84559-53.2748 10.84559H238.2048v205.71107h-68.7569V90.731407zm68.7569 68.779639v136.93144h137.6301c9.0876 0 17.6543-1.85413 25.712-5.5739 8.0471-3.7199 15.1715-8.67575 21.3704-14.87272 6.1924-6.19366 11.0455-13.32264 14.5581-21.37546 3.5086-8.05599 5.2656-16.62928 5.2656-25.71658 0-9.08716-1.757-17.86537-5.2656-26.3296-3.5126-8.46925-8.264-15.90389-14.2501-22.30748-5.9861-6.40347-13.1157-11.46191-21.3704-15.18167-8.2626-3.7199-16.9324-5.57403-26.02-5.57403H238.2048z"/>
</svg>